<?xml version="1.0" encoding="utf-8"?>
<!-- Generator: Adobe Illustrator 28.0.0, SVG Export Plug-In . SVG Version: 6.00 Build 0)  -->
<svg version="1.1" id="Layer_1" xmlns="http://www.w3.org/2000/svg" xmlns:xlink="http://www.w3.org/1999/xlink" x="0px" y="0px"
	 viewBox="0 0 100 100" style="enable-background:new 0 0 100 100;" xml:space="preserve">
<style type="text/css">
	.st0{fill-rule:evenodd;clip-rule:evenodd;fill:#6BC144;}
</style>
<path class="st0" d="M39.5,12.4c0.9,0,1.7,0.7,1.7,1.7c0,0.9-0.7,1.7-1.7,1.7s-1.7-0.7-1.7-1.7C37.8,13.2,38.6,12.4,39.5,12.4
	 M35,18.1c1.3,0,2.3,1,2.3,2.3c0,1.3-1,2.3-2.3,2.3c-1.3,0-2.3-1-2.3-2.3C32.8,19.1,33.8,18.1,35,18.1z M80.8,60.8
	c-0.1,0-0.2,0-0.3,0c1.4-1.9,3.2-2.7,5.6-2.2c-1.8-0.7-3.4-0.4-4.8,0.8c0.8-1.4,1.8-1.9,3-2c1.2-0.1,3.8,0.7,4.6,0
	c-1.7,3-4.1,4.5-7.4,2.8C81.3,60.2,81,60.5,80.8,60.8z M74.3,64.7c-0.2-0.1-0.3-0.2-0.3-0.4c4.5-0.4,7.9,1.4,10.3,5.3
	c-1.3-3.5-3.7-5.5-7.1-6.1c3.1-0.6,5.1,0.3,6.7,2c1.6,1.6,3.8,6.5,5.9,6.7c-6.6,1.3-11.8-0.4-13.5-7.3
	C75.7,64.8,75.1,64.7,74.3,64.7z M74.1,50.5c0.3,9.7-8.3,10.1-6-0.8C69.5,43.2,74.1,42.2,74.1,50.5z M73.7,62.2
	c5.3-4,6.5-13.2,3.8-19.2c-1.8-3.6-3.6-2.4-6.9-3.5c-1-0.3-2-0.3-2.9,0.1c-8.2,3.3-10.2,18.2-2,22.8C68.3,63.8,71.3,64,73.7,62.2z
	 M48.3,40.9c0.8-1.8,3.3-4.9,3.5-3.1c0.5,4.1,5.2,4.2,5.6-1.4c0.1-1.7-0.1-3-0.8-4c-1.8-2.8-5.1-3.4-8.3-2.7c-4.7,1-8,5.3-9.7,9.9
	c-2.3,6-2,13.3,0.8,18.8c4.1,7.8,12.8,7.4,15.8-1.6c0.6-2,1-4.1,1.2-5.8c0.3-3.2-3-4.1-3.8-0.6c-1.2,12.3-5.3,8.6-6,1.4
	C46.1,47.6,46.3,45.2,48.3,40.9z M22.3,48.5c0.1,0,0.1-0.2,0.2-0.2c1.2-0.2,2.3-0.3,3.4-0.5c0.7-0.2,1.6-0.4,2.2-0.7
	c1.3-0.7,1.2-2.4-0.1-3C27.5,44,26.9,44,26.4,44c-1.2,0-2.4,0-3.8,0c0.4-4.7,0.6-9.3,1-14.1c3.8-0.3,9.1-1,11.9,2.7
	c0.5,0.7,1.2,0.9,2.1,0.5c0.8-0.4,1.2-1.1,1-1.9c-0.4-3.9-6.2-5.3-9.8-5.6c-4.3-0.5-8.8,0.3-13.2,1.9c-1.3,0.5-3.6,1.5-2.9,3.3
	c0.3,0.9,1,1.4,2.1,1.2c0.6-0.1,0.5-0.1,1.1-0.3c-0.8,4.5-1,9.7-1.6,13.1c-1.2,0.2-2.7,0.3-2.9,1.9c-0.2,1.2,0.5,1.7,2.7,2.4
	c0,5.3-0.8,11,1.2,16.1c0.8,1.8,2.2,2.8,4.2,2.7c1.6-0.1,3.1-0.3,4.6-0.6c2.2-0.3,4.4-0.9,6.5-1.2c1.4-0.3,2.1-0.8,2.3-1.8
	c0.1-0.8-0.7-1.9-1.9-2.2c-0.8-0.2-1.7-0.3-2.5-0.2c-2.1,0.2-4.3,0.5-6.6,0.8C21.8,57.9,21.8,53.2,22.3,48.5z M49.5,3.1
	c9.5,0,18.4,2.8,25.8,7.6c2.7-0.1,5.4-1.3,8-3.8c-0.7,2.3-2.1,4.4-4.4,6.4c-5.7,4.8-14.3,6.7-11.2,18.1c-1.6,0.9-2.8,1.3-3.5,1.4
	c0.6-7-1.7-11.8-6.9-14.5c4.7,1.5,7.4,4.9,8,10.2c1.7-4.2,1.2-7.6-1.3-10.2c-3.3-3.3-7.3-2.7-9.7-8.2c-2.9,7.7-1.7,21.1,8.6,20.5
	c0.2,1.3,0.1,2.7-0.2,4.2c8.8-2.3,14.7-7.5,17.8-15.6c-1.1,6.5-4.4,11.1-9.8,13.9c9.7,0.2,14.3-4.7,13.9-14.6
	C92.3,27,97,38.2,97,50.6c0,26.2-21.3,47.5-47.5,47.5C23.3,98.1,2,76.8,2,50.6c0-16,7.9-30.1,20-38.7c-0.3-1.7,0.3-3,1.9-4.1
	c-0.9,0.9-1.2,2-0.8,3.3c0.4,1.3,1.7,2.3,3.1,2.3c1.8,0,3.3-1.5,3.3-3.3c0-0.9-0.3-1.7-0.9-2.2C34.9,4.9,42,3.1,49.5,3.1z"/>
</svg>
